# xmcd
#
# Track frame offsets:
#	150
#	13610
#	29485
#	44903
#	60861
#	76473
#	93685
#	112391
#	127827
#	141615
#	153456
#
# Disc length: 2225 seconds
#
# Revision: 1
# Processed by: cddbd v1.5.2PL0 Copyright (c) Steve Scherf et al.
# Submitted via: audiograbber 1.83.01
#
DISCID=9d08af0b
DTITLE=Madison Violet - The good in goodbye
DYEAR=2011
DGENRE=Country
TTITLE0=If I could love you
TTITLE1=Home
TTITLE2=Goin Away
TTITLE3=Stuck in a love
TTITLE4=Fallen by the wayside
TTITLE5=The good in goodbye
TTITLE6=Come as you are
TTITLE7=Colour in grey
TTITLE8=Emily
TTITLE9=Cindy Cindy
TTITLE10=Christy Ellen Francis
EXTD=
EXTT0=
EXTT1=
EXTT2=
EXTT3=
EXTT4=
EXTT5=
EXTT6=
EXTT7=
EXTT8=
EXTT9=
EXTT10=
PLAYORDER=
